#!OML:ASF X:\für Bonn\!DataBase\2005_08_11_Bastian_Final\c3d\Bastian.ASF
:FULLY-SPECIFIED
:DEGREES
63
root -2.34961 16.5738 -5.20832 168.461 -41.9695 -181.913
lowerback 12.1531 -3.76822 -8.03595
upperback 3.95102 -6.21041 1.20621
thorax -1.63514 -3.28984 6.56276
lowerneck 14.8326 -16.9782 -7.91262
upperneck -12.1896 -22.8637 16.3284
head -3.13178 -12.2237 7.2725
rclavicle 7.77e-014 1.51076e-014
rhumerus -166.387 -170.05 133.904
rradius 125.338
rwrist -124.876
rhand 15.6882 12.146
rfingers 7.12502
rthumb 40.499 -12.9275
lclavicle 7.77e-014 1.51076e-014
lhumerus 75.1203 -11.3207 48.8781
lradius 78.9702
lwrist 218.358
lhand -10.2377 32.2328
lfingers 7.12502
lthumb 15.7548 61.6115
rfemur -18.4622 -8.93833 4.30494
rtibia 54.0703
rfoot -12.8775 0.777395
rtoes -11.684
lfemur 14.7946 3.68089 -16.4429
ltibia 31.1116
lfoot -25.3967 -10.7779
ltoes -17.5147
64
root -2.35648 16.5719 -5.23419 168.664 -42.463 -182.074
lowerback 11.9851 -3.75371 -7.92752
upperback 3.8215 -6.15463 1.1206
thorax -1.71145 -3.24505 6.398
lowerneck 14.8334 -17.0765 -7.86239
upperneck -12.1717 -22.9924 16.4955
head -3.09525 -12.3048 7.30784
rclavicle 6.78011e-014 1.98785e-015
rhumerus -165.531 -169.124 135.026
rradius 125.049
rwrist -124.828
rhand 16.34 12.3312
rfingers 7.12502
rthumb 41.1115 -12.5497
lclavicle 6.78011e-014 1.98785e-015
lhumerus 76.0895 -10.93 48.5452
lradius 78.6425
lwrist 217.929
lhand -10.3393 33.1034
lfingers 7.12502
lthumb 15.6569 62.4898
rfemur -18.2159 -8.46527 3.90077
rtibia 53.6607
rfoot -12.9537 1.48873
rtoes -12.5094
lfemur 14.7151 3.62026 -16.4632
ltibia 31.0987
lfoot -25.254 -11.1093
ltoes -17.4945
65
root -2.36304 16.5713 -5.26287 168.863 -42.9453 -182.229
lowerback 11.8275 -3.7432 -7.83294
upperback 3.68814 -6.1073 1.05508
thorax -1.79166 -3.20507 6.26443
lowerneck 14.7492 -17.1852 -7.78445
upperneck -12.1028 -23.1334 16.546
head -3.0464 -12.3799 7.29474
rclavicle -2.42673e-014 -1.98785e-014
rhumerus -164.69 -168.254 136.169
rradius 124.74
rwrist -124.707
rhand 17.006 12.5335
rfingers 7.12502
rthumb 41.7364 -12.1443
lclavicle -2.42673e-014 -1.98785e-014
lhumerus 76.9846 -10.5726 48.2907
lradius 78.322
lwrist 217.484
lhand -10.4404 34.0064
lfingers 7.12502
lthumb 15.5595 63.4005
rfemur -17.9691 -8.02391 3.53046
rtibia 53.2753
rfoot -13.0251 2.18253
rtoes -13.1894
lfemur 14.6528 3.5348 -16.4778
ltibia 31.0503
lfoot -25.0667 -11.4398
ltoes -17.268
66
root -2.37035 16.5714 -5.2956 169.055 -43.4327 -182.368
lowerback 11.6532 -3.74803 -7.72891
upperback 3.56686 -6.07883 1.00108
thorax -1.84614 -3.1771 6.13734
lowerneck 14.6155 -17.2942 -7.72901
upperneck -12.0365 -23.2766 16.5851
head -2.98918 -12.4528 7.27514
rclavicle 6.94667e-014 2.38542e-014
rhumerus -163.854 -167.405 137.313
rradius 124.49
rwrist -124.611
rhand 17.4815 12.7998
rfingers 7.12502
rthumb 42.1821 -11.7289
lclavicle 6.94667e-014 2.38542e-014
lhumerus 77.8473 -10.1635 48.1282
lradius 78.0117
lwrist 217.04
lhand -10.5697 34.8129
lfingers 7.12502
lthumb 15.4349 64.2167
rfemur -17.6971 -7.60685 3.19582
rtibia 52.9239
rfoot -13.1529 2.78503
rtoes -13.6403
lfemur 14.6216 3.50504 -16.4423
ltibia 30.9712
lfoot -24.9165 -11.7643
ltoes -17.3186
67
root -2.3757 16.5731 -5.33288 169.29 -43.9218 -182.534
lowerback 11.4614 -3.7594 -7.68131
upperback 3.45444 -6.06499 0.950687
thorax -1.87254 -3.15896 6.04471
lowerneck 14.395 -17.3948 -7.64861
upperneck -11.9652 -23.4023 16.6013
head -2.92496 -12.514 7.23703
rclavicle -6.11146e-014 -2.78299e-015
rhumerus -163.091 -166.59 138.42
rradius 124.274
rwrist -124.409
rhand 17.921 13.1626
rfingers 7.12502
rthumb 42.5937 -11.2254
lclavicle -6.11146e-014 -2.78299e-015
lhumerus 78.6585 -9.63011 47.9347
lradius 77.7656
lwrist 216.712
lhand -10.619 35.6033
lfingers 7.12502
lthumb 15.3875 65.0107
rfemur -17.4534 -7.25308 2.8855
rtibia 52.6437
rfoot -13.2987 3.29815
rtoes -13.7088
lfemur 14.5977 3.47983 -16.396
ltibia 30.8505
lfoot -24.7682 -12.1268
ltoes -17.4681
68
root -2.38072 16.5761 -5.37369 169.567 -44.432 -182.724
lowerback 11.2488 -3.78259 -7.64944
upperback 3.33084 -6.0669 0.896981
thorax -1.89527 -3.14834 5.95759
lowerneck 14.1128 -17.5275 -7.48842
upperneck -11.8557 -23.5616 16.4731
head -2.86369 -12.5801 7.14119
rclavicle 1.21231e-013 -2.42517e-014
rhumerus -162.364 -165.84 139.57
rradius 124.009
rwrist -124.216
rhand 18.4131 13.5647
rfingers 7.12502
rthumb 43.054 -10.6622
lclavicle 1.21231e-013 -2.42517e-014
lhumerus 79.4327 -9.09219 47.7353
lradius 77.5471
lwrist 216.378
lhand -10.6086 36.3667
lfingers 7.12502
lthumb 15.3975 65.7733
rfemur -17.2213 -6.97695 2.60086
rtibia 52.4484
rfoot -13.5187 3.68437
rtoes -13.9959
lfemur 14.5674 3.44892 -16.3538
ltibia 30.689
lfoot -24.5893 -12.483
ltoes -17.5905
69
root -2.38352 16.5796 -5.41644 169.974 -44.9711 -183.017
lowerback 11.0123 -3.82239 -7.72287
upperback 3.19921 -6.10053 0.851423
thorax -1.89578 -3.15472 5.9385
lowerneck 13.7477 -17.642 -7.3789
upperneck -11.7316 -23.7026 16.3559
head -2.78031 -12.634 7.04345
rclavicle 2.41182e-014 3.97569e-016
rhumerus -161.618 -165.117 140.7
rradius 123.715
rwrist -124.166
rhand 19.1307 13.9741
rfingers 7.12502
rthumb 43.7244 -10.0108
lclavicle 2.41182e-014 3.97569e-016
lhumerus 80.1357 -8.46155 47.5331
lradius 77.3749
lwrist 215.971
lhand -10.492 37.091
lfingers 7.12502
lthumb 15.5098 66.4889
rfemur -17.061 -6.88383 2.28585
rtibia 52.355
rfoot -13.8233 3.9591
rtoes -14.7303
lfemur 14.4996 3.39815 -16.3832
ltibia 30.4728
lfoot -24.3841 -12.8894
ltoes -17.6287
70
root -2.38473 16.5834 -5.46077 170.504 -45.5134 -183.421
lowerback 10.7791 -3.862 -7.87282
upperback 3.02983 -6.14218 0.790175
thorax -1.92969 -3.16149 5.9485
lowerneck 13.4336 -17.755 -7.26719
upperneck -11.6502 -23.8401 16.2347
head -2.71931 -12.6874 6.95382
rclavicle 6.42168e-014 -5.1684e-015
rhumerus -160.967 -164.426 141.8
rradius 123.445
rwrist -124.186
rhand 19.9171 14.282
rfingers 7.12502
rthumb 44.4578 -9.42801
lclavicle 6.42168e-014 -5.1684e-015
lhumerus 80.7435 -7.82993 47.3198
lradius 77.294
lwrist 215.581
lhand -10.2451 37.759
lfingers 7.12502
lthumb 15.7476 67.1384
rfemur -16.9743 -6.87966 1.93264
rtibia 52.3443
rfoot -14.148 4.10755
rtoes -15.8294
lfemur 14.4011 3.34336 -16.4937
ltibia 30.2096
lfoot -24.1633 -13.2669
ltoes -17.7618
71
root -2.38617 16.5893 -5.50776 170.989 -46.0411 -183.774
lowerback 10.5567 -3.90258 -7.94574
upperback 2.88044 -6.17904 0.721752
thorax -1.95834 -3.16744 5.90759
lowerneck 13.0974 -17.8377 -7.14481
upperneck -11.6 -23.932 16.1563
head -2.66574 -12.7226 6.87598
rclavicle 5.62623e-014 -2.22639e-014
rhumerus -160.387 -163.739 142.892
rradius 123.218
rwrist -124.192
rhand 20.6622 14.6285
rfingers 7.12502
rthumb 45.1515 -8.81118
lclavicle 5.62623e-014 -2.22639e-014
lhumerus 81.3245 -7.18407 47.087
lradius 77.2923
lwrist 215.256
lhand -9.93627 38.3382
lfingers 7.12502
lthumb 16.045 67.6938
rfemur -16.8796 -6.95374 1.64742
rtibia 52.389
rfoot -14.5122 4.14772
rtoes -17.0733
lfemur 14.3531 3.24955 -16.5669
ltibia 29.8929
lfoot -23.8944 -13.6122
ltoes -17.8557
72
root -2.38654 16.5968 -5.55815 171.458 -46.5545 -184.095
lowerback 10.3481 -3.95057 -8.04196
upperback 2.71689 -6.22859 0.693022
thorax -2.00005 -3.17888 5.92426
lowerneck 12.8623 -17.8893 -7.03058
upperneck -11.661 -23.9764 16.0632
head -2.66799 -12.736 6.81688
rclavicle -4.52173e-014 -2.50469e-014
rhumerus -159.798 -163.073 143.972
rradius 123.033
rwrist -124.162
rhand 21.3304 14.8287
rfingers 7.12502
rthumb 45.7723 -8.36005
lclavicle -4.52173e-014 -2.50469e-014
lhumerus 81.8272 -6.52315 46.9287
lradius 77.2765
lwrist 214.953
lhand -9.61417 38.9684
lfingers 7.12502
lthumb 16.3552 68.2988
rfemur -16.812 -7.00551 1.42137
rtibia 52.4596
rfoot -14.7937 4.10116
rtoes -17.947
lfemur 14.3306 3.13799 -16.6099
ltibia 29.5226
lfoot -23.6449 -13.9029
ltoes -18.1409
73
root -2.38571 16.6068 -5.61247 171.879 -47.0473 -184.391
lowerback 10.1937 -3.99643 -8.10888
upperback 2.54487 -6.27824 0.655067
thorax -2.08468 -3.18818 5.92076
lowerneck 12.6943 -17.9252 -6.91077
upperneck -11.7917 -23.9962 15.9946
head -2.7021 -12.742 6.77768
rclavicle 1.51573e-015 -1.59028e-015
rhumerus -159.286 -162.409 144.994
rradius 122.865
rwrist -124.127
rhand 21.9368 14.9259
rfingers 7.12502
rthumb 46.3349 -8.02784
lclavicle 1.51573e-015 -1.59028e-015
lhumerus 82.2814 -5.87903 46.7483
lradius 77.3292
lwrist 214.615
lhand -9.17455 39.4728
lfingers 7.12502
lthumb 16.7784 68.7679
rfemur -16.7247 -7.09439 1.23764
rtibia 52.5406
rfoot -15.0229 4.00618
rtoes -18.6674
lfemur 14.3551 3.04515 -16.5983
ltibia 29.1166
lfoot -23.3161 -14.2631
ltoes -18.2356
74
root -2.38469 16.6192 -5.66931 172.221 -47.5118 -184.61
lowerback 10.076 -4.0345 -8.13567
upperback 2.37849 -6.31661 0.651849
thorax -2.18566 -3.19194 5.93373
lowerneck 12.5339 -17.959 -6.82693
upperneck -11.972 -24.0147 15.9294
head -2.74769 -12.7466 6.74761
rclavicle 5.75979e-014 4.37326e-015
rhumerus -158.814 -161.727 146.038
rradius 122.733
rwrist -124.168
rhand 22.6384 14.9338
rfingers 7.12502
rthumb 46.9845 -7.73924
lclavicle 5.75979e-014 4.37326e-015
lhumerus 82.6975 -5.26105 46.7036
lradius 77.3647
lwrist 214.341
lhand -8.93682 39.9182
lfingers 7.12502
lthumb 17.0073 69.1937
rfemur -16.6148 -7.15417 1.1429
rtibia 52.6241
rfoot -15.1865 3.85367
rtoes -19.0256
lfemur 14.4286 2.91328 -16.5445
ltibia 28.6781
lfoot -23.0242 -14.5103
ltoes -18.6447
